<svg id="Layer_1" data-name="Layer 1" xmlns="http://www.w3.org/2000/svg" viewBox="0 0 128 128">
    <path fill="#b4d9ed"
        d="M49.25,2.57a22.42,22.42,0,0,0-3-.84H15.6a34.68,34.68,0,0,0-5,1.69A15.53,15.53,0,0,0,2,15.05l-.23.54V46.25l.23.53A16,16,0,0,0,17.83,60.11H44.09a16.06,16.06,0,0,0,16-16V17.75A16,16,0,0,0,49.25,2.57Z" />
    <path fill="#b4d9ed"
        d="M115.5,2.57c-1-.3-2.09-.53-3.09-.84H81.76L81.29,2C73.06,3.58,67.9,9.81,67.9,18.21V44A15.94,15.94,0,0,0,84,60.11H110.1A16,16,0,0,0,126.27,44V17.75A16.11,16.11,0,0,0,115.5,2.57Z" />
    <path fill="#b4d9ed"
        d="M60.11,84v26.2A16,16,0,0,1,44,126.27H18.22c-8.4,0-14.64-5.16-16.33-13.48l-.16-.39V81.75c.23-1,.46-1.92.77-2.92A16,16,0,0,1,17.75,67.89H44A16,16,0,0,1,60.11,84Z" />
    <path fill="#b4d9ed" d="M97.16,67.89a29.19,29.19,0,1,0,29.11,29.27A29.17,29.17,0,0,0,97.16,67.89Z" />
</svg>