<svg id="Layer_1" data-name="Layer 1" xmlns="http://www.w3.org/2000/svg" viewBox="0 0 128 128">
    <path fill="#b4d9ed"
        d="M123.63,52.85a28,28,0,0,0-10.44-18.54.67.67,0,0,0-.11-.07,1.76,1.76,0,0,0-.29-.21c-3.24-2.43-7.85-6-12.29-9.37,0-4.22,0-8.42,0-12.57a8.54,8.54,0,0,0-.07-1.34,4.61,4.61,0,0,0-5.12-3.7,4.41,4.41,0,0,0-4.14,4.52c-.08,1.93,0,3.85,0,6-2.53-1.93-4.9-3.64-7.2-5.42C80.64,9.56,77.31,7,73.16,5.72c-2.08-.68-4.22-1-6.3-1.57H61.22c-1.78.45-3.55.74-5.33,1.27a25.26,25.26,0,0,0-8.6,4.29C36.47,17.94,25.58,26.1,14.83,34.54a26.89,26.89,0,0,0-10.6,21.8c-.15,13.26-.08,26.53,0,39.79A27.93,27.93,0,0,0,27.28,123.4a29,29,0,0,0,5.12.45H95.7a28.08,28.08,0,0,0,27.86-23.79c.07-.45.22-1,.3-1.41V53.74ZM50.33,95.69a8.6,8.6,0,1,1,0-17.19,8.6,8.6,0,0,1,0,17.19Zm-.21-27.53a8.3,8.3,0,0,1-8.39-8.6,8.54,8.54,0,0,1,17.08,0A8.31,8.31,0,0,1,50.12,68.16ZM77.76,95.69a8.6,8.6,0,0,1-.11-17.19,8.6,8.6,0,1,1,.11,17.19Zm.1-27.53a8.55,8.55,0,1,1-.21-17.1,8.55,8.55,0,1,1,.21,17.1Z" />
</svg>