<svg width="160" height="160" viewBox="0 0 160 160" fill="none" xmlns="http://www.w3.org/2000/svg">
<rect x="25.5" y="53.8809" width="37" height="37" rx="18.5" stroke="#FF5927" stroke-width="3"/>
<rect x="107.793" y="58.3333" width="35" height="35" rx="17.5" fill="#0081F9"/>
<rect x="65.3794" width="30" height="30" rx="15" fill="#0081F9"/>
<rect x="116.138" y="7.38086" width="25" height="25" rx="12.5" fill="#0081F9"/>
<line y1="-1" x2="20.4024" y2="-1" transform="matrix(0.563867 -0.825866 0.741745 0.670682 59.1724 52.564)" stroke="#0081F9" stroke-width="2"/>
<line y1="-1" x2="57.2397" y2="-1" transform="matrix(0.795203 -0.606343 0.498969 0.86662 69.5173 66.8499)" stroke="#0081F9" stroke-width="2"/>
<line y1="-1" x2="28.9659" y2="-1" transform="matrix(0.99998 -0.00632137 0.00477332 0.999989 72.6206 79.9451)" stroke="#0081F9" stroke-width="2"/>
<path d="M0 120C0 114.477 4.47715 110 10 110H80V160H10C4.47715 160 0 155.523 0 150V120Z" fill="#FF5927"/>
<path d="M160 150C160 155.523 155.523 160 150 160H80V110H150C155.523 110 160 114.477 160 120V150Z" fill="#0081F9"/>
<path d="M16.6 129.225V134.55H25.05V137.3H16.6V144H13.35V126.5H26.125V129.225H16.6ZM39.8611 139.95H31.1111L29.3861 144H26.0361L33.9111 126.5H37.1111L45.0111 144H41.6111L39.8611 139.95ZM38.7861 137.4L35.4861 129.75L32.2111 137.4H38.7861ZM63.3117 144L63.2867 132.4L57.5367 142H56.0867L50.3367 132.55V144H47.2367V126.5H49.9117L56.8617 138.1L63.6867 126.5H66.3617L66.3867 144H63.3117Z" fill="#FEFFFF"/>
<path d="M91.35 126.5H94.6V141.25H103.75V144H91.35V126.5ZM106.316 126.5H109.566V144H106.316V126.5ZM129.849 126.5V144H127.174L117.524 132.15V144H114.299V126.5H116.974L126.624 138.35V126.5H129.849ZM140.563 136.675L137.788 139.525V144H134.538V126.5H137.788V135.475L146.438 126.5H150.088L142.738 134.325L150.538 144H146.738L140.563 136.675Z" fill="#FEFFFF"/>
</svg>
