<svg id="Layer_1" data-name="Layer 1" xmlns="http://www.w3.org/2000/svg" viewBox="0 0 128 128">
    <path fill="#b4d9ed"
        d="M125.82,54.89A59.84,59.84,0,0,0,108.45,20c-9.26-9.27-20.14-15.29-33-17.53-2.16-.39-4.41-.69-6.56-1H60.37c-2.24.31-4.55.61-6.72,1A63.5,63.5,0,0,0,18.06,21.62,59.63,59.63,0,0,0,2.33,53.72c-.39,2.09-.55,4.25-.85,6.41V116c.07.24.22.39.22.55,2.09,9.11,11.81,12.88,19.46,7.49,2.85-2,5.79-4,8.64-6.18a1.7,1.7,0,0,1,2.32-.08c1.54.93,3.16,1.85,4.78,2.63a63.31,63.31,0,0,0,39.29,4.94A59.4,59.4,0,0,0,96.1,117.7a5.19,5.19,0,0,0,.62-.42,0,0,0,0,0,0,0h0A59,59,0,0,0,116,98.67s0,0,0,0l.17-.22c.18-.28.35-.54.52-.82.08-.11.14-.22.21-.33C125.15,84.29,128,70.09,125.82,54.89ZM41.24,72A8.91,8.91,0,1,1,41,54.15,8.91,8.91,0,1,1,41.24,72Zm23.58,0a8.91,8.91,0,1,1-.22-17.81A8.91,8.91,0,1,1,64.82,72ZM88.4,72a8.71,8.71,0,0,1-7.67-4h0a9,9,0,0,1-1.37-4.84,9.44,9.44,0,0,1,.18-1.85,8.66,8.66,0,0,1,8.65-7.11A8.91,8.91,0,1,1,88.4,72Z" />
</svg>