<svg id="Layer_1" data-name="Layer 1" xmlns="http://www.w3.org/2000/svg" viewBox="0 0 128 128">
    <path fill="#b4d9ed"
        d="M115.06,106.43c-.14,10.68-7.47,18.63-18.1,19.8a5.36,5.36,0,0,0-.78.23H31.82c-1.39-.3-2.8-.5-4.16-.89-8.74-2.45-14.26-9.19-14.64-18.35-.4-9.47.65-18.8,4.23-27.66,2.33-5.73,5.7-10.68,11.36-13.7a22.32,22.32,0,0,1,11.14-2.68,8.67,8.67,0,0,1,3.66,1.27c1.81,1,3.5,2.21,5.26,3.3q15.36,9.48,30.74,0c1.42-.88,2.87-1.73,4.2-2.74,2.45-1.83,5.15-2.06,8.06-1.63,8,1.17,13.56,5.52,17.34,12.46,3.38,6.2,4.9,12.93,5.57,19.87A98.73,98.73,0,0,1,115.06,106.43Z" />
    <path fill="#b4d9ed" d="M92.77,33.54A29.52,29.52,0,1,1,63.35,3.94,29.5,29.5,0,0,1,92.77,33.54Z" />
</svg>